<svg class="sy-wheel c-images-wheel" viewBox="0 0 500 500" role="img" aria-label="Двенадцать месяцев в порядке Т, V:2, начиная с нисана">
<defs>
<radialGradient id="c-images-wheel-gold" cx=".4" cy=".35" r=".7"><stop offset="0" stop-color="#f3e2b8"/><stop offset=".55" stop-color="#dcc088"/><stop offset="1" stop-color="#c6a15e"/></radialGradient>
<radialGradient id="c-images-wheel-centre" cx=".5" cy=".42" r=".6"><stop offset="0" stop-color="#ffffff"/><stop offset="1" stop-color="#f6f4ec"/></radialGradient>
<filter id="c-images-wheel-glow" x="-60%" y="-60%" width="220%" height="220%" color-interpolation-filters="sRGB"><feGaussianBlur in="SourceAlpha" stdDeviation="4" result="b"/><feFlood flood-color="#d4b675" flood-opacity=".55"/><feComposite in2="b" operator="in" result="g"/><feMerge><feMergeNode in="g"/><feMergeNode in="SourceGraphic"/></feMerge></filter>
</defs>
<circle class="c-images-wheel-band" cx="250" cy="250" r="177" fill="none" stroke="#eef1e9" stroke-width="42"/>
<circle cx="250" cy="250" r="198" fill="none" stroke="#c9d3c7" stroke-width=".9"/>
<circle cx="250" cy="250" r="156" fill="none" stroke="#c9d3c7" stroke-width=".9"/>
<circle cx="250" cy="250" r="177" fill="none" stroke="#d8d6ca" stroke-width="1.2"/>
<path d="M291.41 95.45L300.21 62.61M363.14 136.86L387.18 112.82M404.55 208.59L437.39 199.79M404.55 291.41L437.39 300.21M363.14 363.14L387.18 387.18M291.41 404.55L300.21 437.39M208.59 404.55L199.79 437.39M136.86 363.14L112.82 387.18M95.45 291.41L62.61 300.21M95.45 208.59L62.61 199.79M136.86 136.86L112.82 112.82M208.59 95.45L199.79 62.61" stroke="#c3cdc0" stroke-width=".9" stroke-linecap="round"/>
<path class="c-images-wheel-direction" d="M272.37 37.17A214 214 0 0 1 330.17 51.58" fill="none" stroke="#b28b4e" stroke-width="1.3" stroke-linecap="round"/>
<path class="c-images-wheel-direction" d="M325.7 54.63L334.8 53.46L329.07 46.29" fill="none" stroke="#b28b4e" stroke-width="1.3" stroke-linecap="round" stroke-linejoin="round"/>
<circle class="c-images-wheel-centre" cx="250" cy="250" r="100" fill="url(#c-images-wheel-centre)" stroke="#d4b675" stroke-width="1.2"/>
<circle cx="250" cy="250" r="94" fill="none" stroke="#e3d3ac" stroke-width=".7"/>
<path d="M234 253H266" stroke="#d4b675" stroke-width="1" stroke-linecap="round"/>
<circle class="sy-wheel-point active" data-sy-month-point="0" cx="250.0" cy="73.0" r="21"/><text class="c-images-wheel-num" x="250.0" y="79.8" text-anchor="middle" font-size="19">1</text><path class="c-images-wheel-spoke" d="M250 144L250 99" stroke="#b28b4e" stroke-width="1.4" stroke-opacity="0" stroke-linecap="round"/>
<circle class="sy-wheel-point " data-sy-month-point="1" cx="338.5" cy="96.7" r="21"/><text class="c-images-wheel-num" x="338.5" y="103.5" text-anchor="middle" font-size="19">2</text><path class="c-images-wheel-spoke" d="M303 158.2L325.5 119.23" stroke="#b28b4e" stroke-width="1.4" stroke-opacity="0" stroke-linecap="round"/>
<circle class="sy-wheel-point " data-sy-month-point="2" cx="403.3" cy="161.5" r="21"/><text class="c-images-wheel-num" x="403.3" y="168.3" text-anchor="middle" font-size="19">3</text><path class="c-images-wheel-spoke" d="M341.8 197L380.77 174.5" stroke="#b28b4e" stroke-width="1.4" stroke-opacity="0" stroke-linecap="round"/>
<circle class="sy-wheel-point " data-sy-month-point="3" cx="427.0" cy="250.0" r="21"/><text class="c-images-wheel-num" x="427.0" y="256.8" text-anchor="middle" font-size="19">4</text><path class="c-images-wheel-spoke" d="M356 250L401 250" stroke="#b28b4e" stroke-width="1.4" stroke-opacity="0" stroke-linecap="round"/>
<circle class="sy-wheel-point " data-sy-month-point="4" cx="403.3" cy="338.5" r="21"/><text class="c-images-wheel-num" x="403.3" y="345.3" text-anchor="middle" font-size="19">5</text><path class="c-images-wheel-spoke" d="M341.8 303L380.77 325.5" stroke="#b28b4e" stroke-width="1.4" stroke-opacity="0" stroke-linecap="round"/>
<circle class="sy-wheel-point " data-sy-month-point="5" cx="338.5" cy="403.3" r="21"/><text class="c-images-wheel-num" x="338.5" y="410.1" text-anchor="middle" font-size="19">6</text><path class="c-images-wheel-spoke" d="M303 341.8L325.5 380.77" stroke="#b28b4e" stroke-width="1.4" stroke-opacity="0" stroke-linecap="round"/>
<circle class="sy-wheel-point " data-sy-month-point="6" cx="250.0" cy="427.0" r="21"/><text class="c-images-wheel-num" x="250.0" y="433.8" text-anchor="middle" font-size="19">7</text><path class="c-images-wheel-spoke" d="M250 356L250 401" stroke="#b28b4e" stroke-width="1.4" stroke-opacity="0" stroke-linecap="round"/>
<circle class="sy-wheel-point " data-sy-month-point="7" cx="161.5" cy="403.3" r="21"/><text class="c-images-wheel-num" x="161.5" y="410.1" text-anchor="middle" font-size="19">8</text><path class="c-images-wheel-spoke" d="M197 341.8L174.5 380.77" stroke="#b28b4e" stroke-width="1.4" stroke-opacity="0" stroke-linecap="round"/>
<circle class="sy-wheel-point " data-sy-month-point="8" cx="96.7" cy="338.5" r="21"/><text class="c-images-wheel-num" x="96.7" y="345.3" text-anchor="middle" font-size="19">9</text><path class="c-images-wheel-spoke" d="M158.2 303L119.23 325.5" stroke="#b28b4e" stroke-width="1.4" stroke-opacity="0" stroke-linecap="round"/>
<circle class="sy-wheel-point " data-sy-month-point="9" cx="73.0" cy="250.0" r="21"/><text class="c-images-wheel-num" x="73.0" y="256.8" text-anchor="middle" font-size="19">10</text><path class="c-images-wheel-spoke" d="M144 250L99 250" stroke="#b28b4e" stroke-width="1.4" stroke-opacity="0" stroke-linecap="round"/>
<circle class="sy-wheel-point " data-sy-month-point="10" cx="96.7" cy="161.5" r="21"/><text class="c-images-wheel-num" x="96.7" y="168.3" text-anchor="middle" font-size="19">11</text><path class="c-images-wheel-spoke" d="M158.2 197L119.23 174.5" stroke="#b28b4e" stroke-width="1.4" stroke-opacity="0" stroke-linecap="round"/>
<circle class="sy-wheel-point " data-sy-month-point="11" cx="161.5" cy="96.7" r="21"/><text class="c-images-wheel-num" x="161.5" y="103.5" text-anchor="middle" font-size="19">12</text><path class="c-images-wheel-spoke" d="M197 158.2L174.5 119.23" stroke="#b28b4e" stroke-width="1.4" stroke-opacity="0" stroke-linecap="round"/>
<text x="250" y="239" text-anchor="middle" font-size="54" lang="he" data-sy-month-letter>ה</text>
<text x="250" y="280" text-anchor="middle" font-size="22" data-sy-month-label>нисан</text>
</svg>
